# xmcd
#
# Track frame offsets:
#	150
#	17531
#	34196
#	53657
#	61404
#
# Disc length: 948 seconds
#
# Revision: 1
# Processed by: cddbd v1.5.2PL0 Copyright (c) Steve Scherf et al.
# Submitted via: audiograbber 1.83.01
#
DISCID=3603b205
DTITLE=Jurassic 5 - If Only You Knew
DYEAR=2003
DGENRE=Hip-Hop
TTITLE0=If Only You Knew
TTITLE1=If Only You Knew (Instrumental)
TTITLE2=Quality Control (Live)
TTITLE3=Concrete Schoolyard
TTITLE4=If Only You Knew (Live)
EXTD=www.RapMusicGuide.com
EXTT0=
EXTT1=
EXTT2=
EXTT3=
EXTT4=
PLAYORDER=
